<?xml version="1.0" encoding="UTF-8"?>
<!--Generator: Apple Native CoreSVG 175.5-->
<!DOCTYPE svg
PUBLIC "-//W3C//DTD SVG 1.1//EN"
       "http://www.w3.org/Graphics/SVG/1.1/DTD/svg11.dtd">
<svg version="1.1" xmlns="http://www.w3.org/2000/svg" xmlns:xlink="http://www.w3.org/1999/xlink" width="3300" height="2200">
 <!--glyph: "", point size: 100.0, font version: "18.0d9e1", template writer version: "84"-->
 <g id="Notes">
  <rect height="2200" id="artboard" style="fill:white;opacity:1" width="3300" x="0" y="0"/>
  <line style="fill:none;stroke:black;opacity:1;stroke-width:0.5;" x1="263" x2="3036" y1="292" y2="292"/>
  <text style="stroke:none;fill:black;font-family:sans-serif;font-size:13;font-weight:bold;" transform="matrix(1 0 0 1 263 322)">Weight/Scale Variations</text>
  <text style="stroke:none;fill:black;font-family:sans-serif;font-size:13;text-anchor:middle;" transform="matrix(1 0 0 1 559.711 322)">Ultralight</text>
  <text style="stroke:none;fill:black;font-family:sans-serif;font-size:13;text-anchor:middle;" transform="matrix(1 0 0 1 856.422 322)">Thin</text>
  <text style="stroke:none;fill:black;font-family:sans-serif;font-size:13;text-anchor:middle;" transform="matrix(1 0 0 1 1153.13 322)">Light</text>
  <text style="stroke:none;fill:black;font-family:sans-serif;font-size:13;text-anchor:middle;" transform="matrix(1 0 0 1 1449.84 322)">Regular</text>
  <text style="stroke:none;fill:black;font-family:sans-serif;font-size:13;text-anchor:middle;" transform="matrix(1 0 0 1 1746.56 322)">Medium</text>
  <text style="stroke:none;fill:black;font-family:sans-serif;font-size:13;text-anchor:middle;" transform="matrix(1 0 0 1 2043.27 322)">Semibold</text>
  <text style="stroke:none;fill:black;font-family:sans-serif;font-size:13;text-anchor:middle;" transform="matrix(1 0 0 1 2339.98 322)">Bold</text>
  <text style="stroke:none;fill:black;font-family:sans-serif;font-size:13;text-anchor:middle;" transform="matrix(1 0 0 1 2636.69 322)">Heavy</text>
  <text style="stroke:none;fill:black;font-family:sans-serif;font-size:13;text-anchor:middle;" transform="matrix(1 0 0 1 2933.4 322)">Black</text>
  <line style="fill:none;stroke:black;opacity:1;stroke-width:0.5;" x1="263" x2="3036" y1="1903" y2="1903"/>
  <g transform="matrix(1 0 0 1 263 1933)">
   <path d="M9.24805 0.830078Q10.8691 0.830078 12.2949 0.214844Q13.7207-0.400391 14.8096-1.49414Q15.8984-2.58789 16.5186-4.01367Q17.1387-5.43945 17.1387-7.05078Q17.1387-8.66211 16.5186-10.0879Q15.8984-11.5137 14.8047-12.6074Q13.7109-13.7012 12.2852-14.3164Q10.8594-14.9316 9.23828-14.9316Q7.62695-14.9316 6.20117-14.3164Q4.77539-13.7012 3.69141-12.6074Q2.60742-11.5137 1.9873-10.0879Q1.36719-8.66211 1.36719-7.05078Q1.36719-5.43945 1.9873-4.01367Q2.60742-2.58789 3.69629-1.49414Q4.78516-0.400391 6.21094 0.214844Q7.63672 0.830078 9.24805 0.830078ZM9.24805-0.654297Q7.91992-0.654297 6.7627-1.14746Q5.60547-1.64062 4.73145-2.51953Q3.85742-3.39844 3.36426-4.56055Q2.87109-5.72266 2.87109-7.05078Q2.87109-8.37891 3.35938-9.54102Q3.84766-10.7031 4.72168-11.582Q5.5957-12.4609 6.75293-12.9541Q7.91016-13.4473 9.23828-13.4473Q10.5762-13.4473 11.7383-12.9541Q12.9004-12.4609 13.7793-11.582Q14.6582-10.7031 15.1514-9.54102Q15.6445-8.37891 15.6445-7.05078Q15.6445-5.72266 15.1514-4.56055Q14.6582-3.39844 13.7793-2.51953Q12.9004-1.64062 11.7432-1.14746Q10.5859-0.654297 9.24805-0.654297ZM5.6543-7.05078Q5.6543-6.72852 5.85938-6.52832Q6.06445-6.32812 6.40625-6.32812L8.51562-6.32812L8.51562-4.20898Q8.51562-3.88672 8.71094-3.67676Q8.90625-3.4668 9.23828-3.4668Q9.56055-3.4668 9.77051-3.67676Q9.98047-3.88672 9.98047-4.20898L9.98047-6.32812L12.0898-6.32812Q12.4219-6.32812 12.627-6.52832Q12.832-6.72852 12.832-7.05078Q12.832-7.38281 12.627-7.58789Q12.4219-7.79297 12.0898-7.79297L9.98047-7.79297L9.98047-9.90234Q9.98047-10.2344 9.77051-10.4443Q9.56055-10.6543 9.23828-10.6543Q8.90625-10.6543 8.71094-10.4443Q8.51562-10.2344 8.51562-9.90234L8.51562-7.79297L6.40625-7.79297Q6.06445-7.79297 5.85938-7.58789Q5.6543-7.38281 5.6543-7.05078Z"/>
  </g>
  <g transform="matrix(1 0 0 1 281.867 1933)">
   <path d="M11.709 2.91016Q13.75 2.91016 15.5518 2.12891Q17.3535 1.34766 18.7305-0.0292969Q20.1074-1.40625 20.8887-3.20801Q21.6699-5.00977 21.6699-7.05078Q21.6699-9.0918 20.8887-10.8936Q20.1074-12.6953 18.7305-14.0723Q17.3535-15.4492 15.5469-16.2305Q13.7402-17.0117 11.6992-17.0117Q9.6582-17.0117 7.85645-16.2305Q6.05469-15.4492 4.68262-14.0723Q3.31055-12.6953 2.5293-10.8936Q1.74805-9.0918 1.74805-7.05078Q1.74805-5.00977 2.5293-3.20801Q3.31055-1.40625 4.6875-0.0292969Q6.06445 1.34766 7.86621 2.12891Q9.66797 2.91016 11.709 2.91016ZM11.709 1.25Q9.98047 1.25 8.47656 0.605469Q6.97266-0.0390625 5.83496-1.17676Q4.69727-2.31445 4.05762-3.81836Q3.41797-5.32227 3.41797-7.05078Q3.41797-8.7793 4.05762-10.2832Q4.69727-11.7871 5.83008-12.9297Q6.96289-14.0723 8.4668-14.7119Q9.9707-15.3516 11.6992-15.3516Q13.4277-15.3516 14.9365-14.7119Q16.4453-14.0723 17.583-12.9297Q18.7207-11.7871 19.3652-10.2832Q20.0098-8.7793 20.0098-7.05078Q20.0098-5.32227 19.3701-3.81836Q18.7305-2.31445 17.5879-1.17676Q16.4453-0.0390625 14.9414 0.605469Q13.4375 1.25 11.709 1.25ZM7.17773-7.05078Q7.17773-6.69922 7.41211-6.47461Q7.64648-6.25 8.01758-6.25L10.8887-6.25L10.8887-3.36914Q10.8887-2.99805 11.1133-2.76855Q11.3379-2.53906 11.6895-2.53906Q12.0605-2.53906 12.29-2.76855Q12.5195-2.99805 12.5195-3.36914L12.5195-6.25L15.4004-6.25Q15.7715-6.25 16.001-6.47461Q16.2305-6.69922 16.2305-7.05078Q16.2305-7.42188 16.001-7.65137Q15.7715-7.88086 15.4004-7.88086L12.5195-7.88086L12.5195-10.752Q12.5195-11.1328 12.29-11.3623Q12.0605-11.5918 11.6895-11.5918Q11.3379-11.5918 11.1133-11.3574Q10.8887-11.123 10.8887-10.752L10.8887-7.88086L8.01758-7.88086Q7.63672-7.88086 7.40723-7.65137Q7.17773-7.42188 7.17773-7.05078Z"/>
  </g>
  <g transform="matrix(1 0 0 1 305.646 1933)">
   <path d="M14.9707 5.66406Q17.0605 5.66406 18.96 5.01465Q20.8594 4.36523 22.4512 3.19336Q24.043 2.02148 25.2197 0.429688Q26.3965-1.16211 27.0459-3.06641Q27.6953-4.9707 27.6953-7.05078Q27.6953-9.14062 27.0459-11.04Q26.3965-12.9395 25.2197-14.5312Q24.043-16.123 22.4512-17.2998Q20.8594-18.4766 18.9551-19.126Q17.0508-19.7754 14.9609-19.7754Q12.8711-19.7754 10.9717-19.126Q9.07227-18.4766 7.48535-17.2998Q5.89844-16.123 4.72168-14.5312Q3.54492-12.9395 2.90039-11.04Q2.25586-9.14062 2.25586-7.05078Q2.25586-4.9707 2.90527-3.06641Q3.55469-1.16211 4.72656 0.429688Q5.89844 2.02148 7.49023 3.19336Q9.08203 4.36523 10.9814 5.01465Q12.8809 5.66406 14.9707 5.66406ZM14.9707 3.84766Q13.1641 3.84766 11.5283 3.2959Q9.89258 2.74414 8.53516 1.74805Q7.17773 0.751953 6.17676-0.610352Q5.17578-1.97266 4.62891-3.6084Q4.08203-5.24414 4.08203-7.05078Q4.08203-8.86719 4.62891-10.5029Q5.17578-12.1387 6.17188-13.501Q7.16797-14.8633 8.52539-15.8594Q9.88281-16.8555 11.5186-17.4023Q13.1543-17.9492 14.9609-17.9492Q16.7773-17.9492 18.4131-17.4023Q20.0488-16.8555 21.4111-15.8594Q22.7734-14.8633 23.7744-13.501Q24.7754-12.1387 25.3223-10.5029Q25.8691-8.86719 25.8691-7.05078Q25.8691-5.24414 25.3223-3.6084Q24.7754-1.97266 23.7793-0.610352Q22.7832 0.751953 21.4209 1.74805Q20.0586 2.74414 18.4229 3.2959Q16.7871 3.84766 14.9707 3.84766ZM9.19922-7.05078Q9.19922-6.66992 9.45801-6.4209Q9.7168-6.17188 10.1172-6.17188L14.0625-6.17188L14.0625-2.2168Q14.0625-1.81641 14.3115-1.55762Q14.5605-1.29883 14.9512-1.29883Q15.3516-1.29883 15.6104-1.55273Q15.8691-1.80664 15.8691-2.2168L15.8691-6.17188L19.8242-6.17188Q20.2246-6.17188 20.4785-6.4209Q20.7324-6.66992 20.7324-7.05078Q20.7324-7.46094 20.4785-7.71484Q20.2246-7.96875 19.8242-7.96875L15.8691-7.96875L15.8691-11.9141Q15.8691-12.3242 15.6104-12.583Q15.3516-12.8418 14.9512-12.8418Q14.5605-12.8418 14.3115-12.583Q14.0625-12.3242 14.0625-11.9141L14.0625-7.96875L10.1172-7.96875Q9.70703-7.96875 9.45312-7.71484Q9.19922-7.46094 9.19922-7.05078Z"/>
  </g>
  <text style="stroke:none;fill:black;font-family:sans-serif;font-size:13;font-weight:bold;" transform="matrix(1 0 0 1 263 1953)">Design Variations</text>
  <text style="stroke:none;fill:black;font-family:sans-serif;font-size:13;" transform="matrix(1 0 0 1 263 1971)">Symbols are supported in up to nine weights and three scales.</text>
  <text style="stroke:none;fill:black;font-family:sans-serif;font-size:13;" transform="matrix(1 0 0 1 263 1989)">For optimal layout with text and other symbols, vertically align</text>
  <text style="stroke:none;fill:black;font-family:sans-serif;font-size:13;" transform="matrix(1 0 0 1 263 2007)">symbols with the adjacent text.</text>
  <line style="fill:none;stroke:#00AEEF;stroke-width:0.5;opacity:1.0;" x1="776" x2="776" y1="1919" y2="1933"/>
  <g transform="matrix(1 0 0 1 776 1933)">
   <path d="M3.31055 0.15625Q3.70117 0.15625 3.91602-0.00976562Q4.13086-0.175781 4.26758-0.585938L5.52734-4.0332L11.2891-4.0332L12.5488-0.585938Q12.6855-0.175781 12.9004-0.00976562Q13.1152 0.15625 13.4961 0.15625Q13.8867 0.15625 14.1162-0.0585938Q14.3457-0.273438 14.3457-0.644531Q14.3457-0.869141 14.2383-1.17188L9.6582-13.3691Q9.48242-13.8184 9.17969-14.043Q8.87695-14.2676 8.4082-14.2676Q7.5-14.2676 7.17773-13.3789L2.59766-1.16211Q2.49023-0.859375 2.49023-0.634766Q2.49023-0.263672 2.70996-0.0537109Q2.92969 0.15625 3.31055 0.15625ZM6.00586-5.51758L8.37891-12.0898L8.42773-12.0898L10.8008-5.51758Z"/>
  </g>
  <line style="fill:none;stroke:#00AEEF;stroke-width:0.5;opacity:1.0;" x1="793.197" x2="793.197" y1="1919" y2="1933"/>
  <text style="stroke:none;fill:black;font-family:sans-serif;font-size:13;font-weight:bold;" transform="matrix(1 0 0 1 776 1953)">Margins</text>
  <text style="stroke:none;fill:black;font-family:sans-serif;font-size:13;" transform="matrix(1 0 0 1 776 1971)">Leading and trailing margins on the left and right side of each symbol</text>
  <text style="stroke:none;fill:black;font-family:sans-serif;font-size:13;" transform="matrix(1 0 0 1 776 1989)">can be adjusted by modifying the x-location of the margin guidelines.</text>
  <text style="stroke:none;fill:black;font-family:sans-serif;font-size:13;" transform="matrix(1 0 0 1 776 2007)">Modifications are automatically applied proportionally to all</text>
  <text style="stroke:none;fill:black;font-family:sans-serif;font-size:13;" transform="matrix(1 0 0 1 776 2025)">scales and weights.</text>
  <g transform="matrix(1 0 0 1 1289 1933)">
   <path d="M2.8418 1.86523L4.54102 3.57422Q5.18555 4.22852 5.90332 4.17969Q6.62109 4.13086 7.31445 3.35938L18.0078-8.42773L17.041-9.4043L6.42578 2.27539Q6.16211 2.57812 5.89355 2.61719Q5.625 2.65625 5.27344 2.30469L4.10156 1.14258Q3.75 0.791016 3.79395 0.522461Q3.83789 0.253906 4.14062-0.0195312L15.6152-10.8203L14.6387-11.7871L3.04688-0.898438Q2.30469-0.214844 2.25098 0.498047Q2.19727 1.21094 2.8418 1.86523ZM9.25781-16.3281Q8.94531-16.0254 8.90625-15.6348Q8.86719-15.2441 9.04297-14.9512Q9.21875-14.6777 9.55566-14.541Q9.89258-14.4043 10.3809-14.5215Q11.4746-14.7754 12.5977-14.7314Q13.7207-14.6875 14.7949-13.9844L14.209-12.5293Q13.9551-11.9043 14.0674-11.4404Q14.1797-10.9766 14.5801-10.5664L16.875-8.25195Q17.2363-7.88086 17.5781-7.82227Q17.9199-7.76367 18.3398-7.8418L19.4043-8.03711L20.0684-7.36328L20.0293-6.80664Q20-6.43555 20.1221-6.12305Q20.2441-5.81055 20.6055-5.44922L21.3672-4.70703Q21.7285-4.3457 22.1533-4.33105Q22.5781-4.31641 22.9297-4.66797L25.8398-7.58789Q26.1914-7.93945 26.1816-8.35449Q26.1719-8.76953 25.8105-9.13086L25.0391-9.89258Q24.6875-10.2539 24.3799-10.3857Q24.0723-10.5176 23.7109-10.4883L23.1348-10.4395L22.4902-11.0742L22.7344-12.1973Q22.832-12.6172 22.6953-12.9834Q22.5586-13.3496 22.1191-13.7891L19.9219-15.9766Q18.6719-17.2168 17.2607-17.8369Q15.8496-18.457 14.4189-18.4814Q12.9883-18.5059 11.665-17.959Q10.3418-17.4121 9.25781-16.3281ZM10.752-15.957Q11.6602-16.6211 12.7002-16.9043Q13.7402-17.1875 14.8047-17.085Q15.8691-16.9824 16.8701-16.5137Q17.8711-16.0449 18.7012-15.2051L21.1328-12.793Q21.3086-12.6172 21.3525-12.4512Q21.3965-12.2852 21.3379-12.0312L21.0156-10.5469L22.5195-9.0625L23.5059-9.12109Q23.6914-9.13086 23.7891-9.09668Q23.8867-9.0625 24.0332-8.91602L24.6094-8.33984L22.168-5.89844L21.5918-6.47461Q21.4453-6.62109 21.4062-6.71875Q21.3672-6.81641 21.377-7.01172L21.4453-7.98828L19.9512-9.47266L18.4277-9.21875Q18.1836-9.16992 18.042-9.2041Q17.9004-9.23828 17.7148-9.41406L15.7129-11.416Q15.5176-11.5918 15.4932-11.7529Q15.4688-11.9141 15.5859-12.1875L16.4648-14.2773Q15.293-15.3711 13.8281-15.791Q12.3633-16.2109 10.8398-15.7617Q10.7227-15.7324 10.6885-15.8057Q10.6543-15.8789 10.752-15.957Z"/>
  </g>
  <text style="stroke:none;fill:black;font-family:sans-serif;font-size:13;font-weight:bold;" transform="matrix(1 0 0 1 1289 1953)">Exporting</text>
  <text style="stroke:none;fill:black;font-family:sans-serif;font-size:13;" transform="matrix(1 0 0 1 1289 1971)">Symbols should be outlined when exporting to ensure the</text>
  <text style="stroke:none;fill:black;font-family:sans-serif;font-size:13;" transform="matrix(1 0 0 1 1289 1989)">design is preserved when submitting to Xcode.</text>
  <text id="template-version" style="stroke:none;fill:black;font-family:sans-serif;font-size:13;text-anchor:end;" transform="matrix(1 0 0 1 3036 1933)">Template v.2.0</text>
  <text style="stroke:none;fill:black;font-family:sans-serif;font-size:13;text-anchor:end;" transform="matrix(1 0 0 1 3036 1951)">Requires Xcode 12 or greater</text>
  <text id="descriptive-name" style="stroke:none;fill:black;font-family:sans-serif;font-size:13;text-anchor:end;" transform="matrix(1 0 0 1 3036 1969)">Generated from custom.line.3.horizontal</text>
  <text style="stroke:none;fill:black;font-family:sans-serif;font-size:13;text-anchor:end;" transform="matrix(1 0 0 1 3036 1987)">Typeset at 100 points</text>
  <text style="stroke:none;fill:black;font-family:sans-serif;font-size:13;" transform="matrix(1 0 0 1 263 726)">Small</text>
  <text style="stroke:none;fill:black;font-family:sans-serif;font-size:13;" transform="matrix(1 0 0 1 263 1156)">Medium</text>
  <text style="stroke:none;fill:black;font-family:sans-serif;font-size:13;" transform="matrix(1 0 0 1 263 1586)">Large</text>
 </g>
 <g id="Guides">
  <g id="H-reference" style="fill:#27AAE1;stroke:none;" transform="matrix(1 0 0 1 339 696)">
   <path d="M0.993347 0L3.6377 0L29.3282-67.1326L30.0301-67.1326L30.0301-70.459L28.1227-70.459ZM11.6882-24.4797L46.9818-24.4797L46.2311-26.7288L12.4382-26.7288ZM55.1193 0L57.7637 0L30.6381-70.459L29.4327-70.459L29.4327-67.1326Z"/>
  </g>
  <line id="Baseline-S" style="fill:none;stroke:#27AAE1;opacity:1;stroke-width:0.5;" x1="263" x2="3036" y1="696" y2="696"/>
  <line id="Capline-S" style="fill:none;stroke:#27AAE1;opacity:1;stroke-width:0.5;" x1="263" x2="3036" y1="625.541" y2="625.541"/>
  <g id="H-reference" style="fill:#27AAE1;stroke:none;" transform="matrix(1 0 0 1 339 1126)">
   <path d="M0.993347 0L3.6377 0L29.3282-67.1326L30.0301-67.1326L30.0301-70.459L28.1227-70.459ZM11.6882-24.4797L46.9818-24.4797L46.2311-26.7288L12.4382-26.7288ZM55.1193 0L57.7637 0L30.6381-70.459L29.4327-70.459L29.4327-67.1326Z"/>
  </g>
  <line id="Baseline-M" style="fill:none;stroke:#27AAE1;opacity:1;stroke-width:0.5;" x1="263" x2="3036" y1="1126" y2="1126"/>
  <line id="Capline-M" style="fill:none;stroke:#27AAE1;opacity:1;stroke-width:0.5;" x1="263" x2="3036" y1="1055.54" y2="1055.54"/>
  <g id="H-reference" style="fill:#27AAE1;stroke:none;" transform="matrix(1 0 0 1 339 1556)">
   <path d="M0.993347 0L3.6377 0L29.3282-67.1326L30.0301-67.1326L30.0301-70.459L28.1227-70.459ZM11.6882-24.4797L46.9818-24.4797L46.2311-26.7288L12.4382-26.7288ZM55.1193 0L57.7637 0L30.6381-70.459L29.4327-70.459L29.4327-67.1326Z"/>
  </g>
  <line id="Baseline-L" style="fill:none;stroke:#27AAE1;opacity:1;stroke-width:0.5;" x1="263" x2="3036" y1="1556" y2="1556"/>
  <line id="Capline-L" style="fill:none;stroke:#27AAE1;opacity:1;stroke-width:0.5;" x1="263" x2="3036" y1="1485.54" y2="1485.54"/>
  <line id="left-margin" style="fill:none;stroke:#00AEEF;stroke-width:0.5;opacity:1.0;" x1="1388.01" x2="1388.01" y1="1030.78" y2="1150.12"/>
  <line id="right-margin" style="fill:none;stroke:#00AEEF;stroke-width:0.5;opacity:1.0;" x1="1511.68" x2="1511.68" y1="1030.78" y2="1150.12"/>
 </g>
 <g id="Symbols">
  <g id="Black-L" transform="matrix(1 0 0 1 2849.92 1556)">
   <path d="M24.8022 5.23875L142.159 5.23875Q145.846 5.23875 148.372 2.51917Q150.898-0.200405 150.898-3.79237Q150.898-7.48037 148.372-10.152Q145.846-12.8236 142.159-12.8236L24.8022-12.8236Q21.1727-12.8236 18.6284-10.1228Q16.084-7.422 16.084-3.79237Q16.084-0.317151 18.6284 2.4608Q21.1727 5.23875 24.8022 5.23875ZM24.8022-26.2126L142.159-26.2126Q145.846-26.2126 148.372-28.9426Q150.898-31.6726 150.898-35.2438Q150.898-38.9526 148.372-41.6138Q145.846-44.275 142.159-44.275L24.8022-44.275Q21.1727-44.275 18.6284-41.5846Q16.084-38.8942 16.084-35.2438Q16.084-31.7894 18.6284-29.001Q21.1727-26.2126 24.8022-26.2126ZM24.8022-57.6264L142.159-57.6264Q145.846-57.6264 148.372-60.346Q150.898-63.0655 150.898-66.6368Q150.898-70.3456 148.372-73.0067Q145.846-75.6679 142.159-75.6679L24.8022-75.6679Q21.1727-75.6679 18.6284-72.9775Q16.084-70.2871 16.084-66.6368Q16.084-63.1824 18.6284-60.4043Q21.1727-57.6264 24.8022-57.6264Z"/>
  </g>
  <g id="Heavy-L" transform="matrix(1 0 0 1 2554.12 1556)">
   <path d="M23.7908 3.31783L141.33 3.31783Q144.58 3.31783 146.823 0.935798Q149.067-1.44627 149.067-4.64232Q149.067-7.89734 146.823-10.2499Q144.58-12.6024 141.33-12.6024L23.7908-12.6024Q20.5803-12.6024 18.3322-10.2276Q16.084-7.85274 16.084-4.64232Q16.084-1.53546 18.3322 0.891201Q20.5803 3.31783 23.7908 3.31783ZM23.7908-27.2566L141.33-27.2566Q144.58-27.2566 146.823-29.6538Q149.067-32.051 149.067-35.2167Q149.067-38.502 146.823-40.8394Q144.58-43.1769 141.33-43.1769L23.7908-43.1769Q20.5803-43.1769 18.3322-40.8171Q16.084-38.4574 16.084-35.2167Q16.084-32.1402 18.3322-29.6984Q20.5803-27.2566 23.7908-27.2566ZM23.7908-57.8166L141.33-57.8166Q144.58-57.8166 146.823-60.1986Q149.067-62.5808 149.067-65.7465Q149.067-69.0318 146.823-71.3692Q144.58-73.7067 141.33-73.7067L23.7908-73.7067Q20.5803-73.7067 18.3322-71.3469Q16.084-68.9871 16.084-65.7465Q16.084-62.67 18.3322-60.2432Q20.5803-57.8166 23.7908-57.8166Z"/>
  </g>
  <g id="Bold-L" transform="matrix(1 0 0 1 2258.52 1556)">
   <path d="M22.5308 1.17435L140.36 1.17435Q143.064 1.17435 144.955-0.7926Q146.845-2.75963 146.845-5.45662Q146.845-8.17373 144.955-10.1306Q143.064-12.0874 140.36-12.0874L22.5308-12.0874Q19.8427-12.0874 17.9634-10.116Q16.084-8.14454 16.084-5.45662Q16.084-2.81801 17.9634-0.821786Q19.8427 1.17435 22.5308 1.17435ZM22.5308-28.5476L140.36-28.5476Q143.064-28.5476 144.955-30.5336Q146.845-32.5197 146.845-35.1784Q146.845-37.9338 144.955-39.8716Q143.064-41.8094 140.36-41.8094L22.5308-41.8094Q19.8427-41.8094 17.9634-39.857Q16.084-37.9046 16.084-35.1784Q16.084-32.5781 17.9634-30.5628Q19.8427-28.5476 22.5308-28.5476ZM22.5308-58.2783L140.36-58.2783Q143.064-58.2783 144.955-60.2453Q146.845-62.2124 146.845-64.8711Q146.845-67.6264 144.955-69.5642Q143.064-71.5021 140.36-71.5021L22.5308-71.5021Q19.8427-71.5021 17.9634-69.5496Q16.084-67.5971 16.084-64.8711Q16.084-62.2709 17.9634-60.2745Q19.8427-58.2783 22.5308-58.2783Z"/>
  </g>
  <g id="Semibold-L" transform="matrix(1 0 0 1 1962.57 1556)">
   <path d="M21.6622-0.303348L139.692-0.303348Q142.02-0.303348 143.666-1.98415Q145.313-3.66506 145.313-6.01799Q145.313-8.36427 143.666-10.0484Q142.02-11.7323 139.692-11.7323L21.6622-11.7323Q19.3342-11.7323 17.7092-10.0391Q16.084-8.3457 16.084-6.01799Q16.084-3.70218 17.7092-2.00271Q19.3342-0.303348 21.6622-0.303348ZM21.6622-29.4376L139.692-29.4376Q142.02-29.4376 143.666-31.1402Q145.313-32.8428 145.313-35.152Q145.313-37.5421 143.666-39.2043Q142.02-40.8666 139.692-40.8666L21.6622-40.8666Q19.3342-40.8666 17.7092-39.195Q16.084-37.5235 16.084-35.152Q16.084-32.88 17.7092-31.1587Q19.3342-29.4376 21.6622-29.4376ZM21.6622-58.5965L139.692-58.5965Q142.02-58.5965 143.666-60.2775Q145.313-61.9585 145.313-64.2676Q145.313-66.6575 143.666-68.3198Q142.02-69.9823 139.692-69.9823L21.6622-69.9823Q19.3342-69.9823 17.7092-68.3106Q16.084-66.6389 16.084-64.2676Q16.084-61.9957 17.7092-60.296Q19.3342-58.5965 21.6622-58.5965Z"/>
  </g>
  <g id="Medium-L" transform="matrix(1 0 0 1 1666.44 1556)">
   <path d="M21.0036-1.4238L139.185-1.4238Q141.227-1.4238 142.689-2.88763Q144.151-4.35159 144.151-6.44365Q144.151-8.50874 142.689-9.986Q141.227-11.4631 139.185-11.4631L21.0036-11.4631Q18.9487-11.4631 17.5164-9.98075Q16.084-8.49824 16.084-6.44365Q16.084-4.3726 17.5164-2.89813Q18.9487-1.4238 21.0036-1.4238ZM21.0036-30.1125L139.185-30.1125Q141.227-30.1125 142.689-31.6001Q144.151-33.0879 144.151-35.1319Q144.151-37.245 142.689-38.6984Q141.227-40.1518 139.185-40.1518L21.0036-40.1518Q18.9487-40.1518 17.5164-38.6931Q16.084-37.2345 16.084-35.1319Q16.084-33.1089 17.5164-31.6106Q18.9487-30.1125 21.0036-30.1125ZM21.0036-58.8378L139.185-58.8378Q141.227-58.8378 142.689-60.3019Q144.151-61.766 144.151-63.81Q144.151-65.9228 142.689-67.3763Q141.227-68.8299 139.185-68.8299L21.0036-68.8299Q18.9487-68.8299 17.5164-67.3711Q16.084-65.9123 16.084-63.81Q16.084-61.787 17.5164-60.3124Q18.9487-58.8378 21.0036-58.8378Z"/>
  </g>
  <g id="Regular-L" transform="matrix(1 0 0 1 1370.48 1556)">
   <path d="M20.1446-2.88526L138.523-2.88526Q140.194-2.88526 141.415-4.06608Q142.636-5.24706 142.636-6.99885Q142.636-8.69719 141.415-9.90465Q140.194-11.112 138.523-11.112L20.1446-11.112Q18.4457-11.112 17.2649-9.90465Q16.084-8.69719 16.084-6.99885Q16.084-5.24706 17.2649-4.06608Q18.4457-2.88526 20.1446-2.88526ZM20.1446-30.9927L138.523-30.9927Q140.194-30.9927 141.415-32.2Q142.636-33.4075 142.636-35.1058Q142.636-36.8576 141.415-38.0385Q140.194-39.2194 138.523-39.2194L20.1446-39.2194Q18.4457-39.2194 17.2649-38.0385Q16.084-36.8576 16.084-35.1058Q16.084-33.4075 17.2649-32.2Q18.4457-30.9927 20.1446-30.9927ZM20.1446-59.1526L138.523-59.1526Q140.194-59.1526 141.415-60.3337Q142.636-61.5149 142.636-63.2131Q142.636-64.9645 141.415-66.1456Q140.194-67.3268 138.523-67.3268L20.1446-67.3268Q18.4457-67.3268 17.2649-66.1456Q16.084-64.9645 16.084-63.2131Q16.084-61.5149 17.2649-60.3337Q18.4457-59.1526 20.1446-59.1526Z"/>
  </g>
  <g id="Light-L" transform="matrix(1 0 0 1 1074.39 1556)">
   <path d="M19.2285-2.8471L138.218-2.8471Q139.488-2.8471 140.442-3.76066Q141.396-4.67437 141.396-6.02567Q141.396-7.34209 140.442-8.27284Q139.488-9.20342 138.218-9.20342L19.2285-9.20342Q17.9112-9.20342 16.9977-8.27284Q16.084-7.34209 16.084-6.02567Q16.084-4.67437 16.9977-3.76066Q17.9112-2.8471 19.2285-2.8471ZM19.2285-31.8706L138.218-31.8706Q139.488-31.8706 140.442-32.8012Q141.396-33.732 141.396-35.0484Q141.396-36.3997 140.442-37.3133Q139.488-38.227 138.218-38.227L19.2285-38.227Q17.9112-38.227 16.9977-37.3133Q16.084-36.3997 16.084-35.0484Q16.084-33.732 16.9977-32.8012Q17.9112-31.8706 19.2285-31.8706ZM19.2285-60.9274L138.218-60.9274Q139.488-60.9274 140.442-61.8414Q141.396-62.7555 141.396-64.0719Q141.396-65.4224 140.442-66.3365Q139.488-67.2505 138.218-67.2505L19.2285-67.2505Q17.9112-67.2505 16.9977-66.3365Q16.084-65.4224 16.084-64.0719Q16.084-62.7555 16.9977-61.8414Q17.9112-60.9274 19.2285-60.9274Z"/>
  </g>
  <g id="Thin-L" transform="matrix(1 0 0 1 778.502 1556)">
   <path d="M18.0168-2.79663L137.814-2.79663Q138.554-2.79663 139.155-3.35671Q139.755-3.91695 139.755-4.73856Q139.755-5.54986 139.155-6.11463Q138.554-6.67922 137.814-6.67922L18.0168-6.67922Q17.2043-6.67922 16.6442-6.11463Q16.084-5.54986 16.084-4.73856Q16.084-3.91695 16.6442-3.35671Q17.2043-2.79663 18.0168-2.79663ZM18.0168-33.0318L137.814-33.0318Q138.554-33.0318 139.155-33.5964Q139.755-34.1611 139.755-34.9725Q139.755-35.7941 139.155-36.3543Q138.554-36.9144 137.814-36.9144L18.0168-36.9144Q17.2043-36.9144 16.6442-36.3543Q16.084-35.7941 16.084-34.9725Q16.084-34.1611 16.6442-33.5964Q17.2043-33.0318 18.0168-33.0318ZM18.0168-63.2747L137.814-63.2747Q138.554-63.2747 139.155-63.8354Q139.755-64.3963 139.755-65.2076Q139.755-66.028 139.155-66.5888Q138.554-67.1495 137.814-67.1495L18.0168-67.1495Q17.2043-67.1495 16.6442-66.5888Q16.084-66.028 16.084-65.2076Q16.084-64.3963 16.6442-63.8354Q17.2043-63.2747 18.0168-63.2747Z"/>
  </g>
  <g id="Ultralight-L" transform="matrix(1 0 0 1 482.211 1556)">
   <path d="M17.3962-2.77078L137.608-2.77078Q138.076-2.77078 138.495-3.14981Q138.915-3.529 138.915-4.07931Q138.915-4.63189 138.495-5.0092Q138.076-5.38635 137.608-5.38635L17.3962-5.38635Q16.8422-5.38635 16.4631-5.0092Q16.084-4.63189 16.084-4.07931Q16.084-3.529 16.4631-3.14981Q16.8422-2.77078 17.3962-2.77078ZM17.3962-33.6265L137.608-33.6265Q138.076-33.6265 138.495-34.0037Q138.915-34.381 138.915-34.9336Q138.915-35.4839 138.495-35.8631Q138.076-36.2421 137.608-36.2421L17.3962-36.2421Q16.8422-36.2421 16.4631-35.8631Q16.084-35.4839 16.084-34.9336Q16.084-34.381 16.4631-34.0037Q16.8422-33.6265 17.3962-33.6265ZM17.3962-64.477L137.608-64.477Q138.076-64.477 138.495-64.8568Q138.915-65.2367 138.915-65.7893Q138.915-66.3381 138.495-66.7181Q138.076-67.0978 137.608-67.0978L17.3962-67.0978Q16.8422-67.0978 16.4631-66.7181Q16.084-66.3381 16.084-65.7893Q16.084-65.2367 16.4631-64.8568Q16.8422-64.477 17.3962-64.477Z"/>
  </g>
  <g id="Black-M" transform="matrix(1 0 0 1 2868.02 1126)">
   <path d="M19.9605-2.22109L110.807-2.22109Q113.985-2.22109 116.149-4.58195Q118.312-6.94278 118.312-10.0116Q118.312-13.1893 116.149-15.4958Q113.985-17.8022 110.807-17.8022L19.9605-17.8022Q16.84-17.8022 14.6505-15.4672Q12.4609-13.1322 12.4609-10.0116Q12.4609-7.05691 14.6505-4.63902Q16.84-2.22109 19.9605-2.22109ZM19.9605-27.4655L110.807-27.4655Q113.985-27.4655 116.149-29.8292Q118.312-32.1928 118.312-35.2561Q118.312-38.4392 116.149-40.743Q113.985-43.0468 110.807-43.0468L19.9605-43.0468Q16.84-43.0468 14.6505-40.7145Q12.4609-38.3822 12.4609-35.2561Q12.4609-32.3069 14.6505-29.8863Q16.84-27.4655 19.9605-27.4655ZM19.9605-52.6585L110.807-52.6585Q113.985-52.6585 116.149-55.0193Q118.312-57.3801 118.312-60.4436Q118.312-63.6267 116.149-65.9303Q113.985-68.2341 110.807-68.2341L19.9605-68.2341Q16.84-68.2341 14.6505-65.9018Q12.4609-63.5695 12.4609-60.4436Q12.4609-57.4943 14.6505-55.0763Q16.84-52.6585 19.9605-52.6585Z"/>
  </g>
  <g id="Heavy-M" transform="matrix(1 0 0 1 2572.14 1126)">
   <path d="M19.0562-4.10245L110.025-4.10245Q112.813-4.10245 114.725-6.15799Q116.637-8.21353 116.637-10.9323Q116.637-13.7219 114.725-15.742Q112.813-17.7621 110.025-17.7621L19.0562-17.7621Q16.3103-17.7621 14.3857-15.7202Q12.4609-13.6783 12.4609-10.9323Q12.4609-8.30072 14.3857-6.20158Q16.3103-4.10245 19.0562-4.10245ZM19.0562-28.4051L110.025-28.4051Q112.813-28.4051 114.725-30.4689Q116.637-32.5327 116.637-35.235Q116.637-38.041 114.725-40.0529Q112.813-42.0649 110.025-42.0649L19.0562-42.0649Q16.3103-42.0649 14.3857-40.0311Q12.4609-37.9974 12.4609-35.235Q12.4609-32.6199 14.3857-30.5125Q16.3103-28.4051 19.0562-28.4051ZM19.0562-52.6806L110.025-52.6806Q112.813-52.6806 114.725-54.7362Q116.637-56.7917 116.637-59.4941Q116.637-62.3001 114.725-64.312Q112.813-66.3239 110.025-66.3239L19.0562-66.3239Q16.3103-66.3239 14.3857-64.2902Q12.4609-62.2564 12.4609-59.4941Q12.4609-56.879 14.3857-54.7798Q16.3103-52.6806 19.0562-52.6806Z"/>
  </g>
  <g id="Bold-M" transform="matrix(1 0 0 1 2276.37 1126)">
   <path d="M18.0447-6.20701L109.151-6.20701Q111.501-6.20701 113.132-7.921Q114.763-9.63504 114.763-11.9622Q114.763-14.3177 113.132-16.0175Q111.501-17.7173 109.151-17.7173L18.0447-17.7173Q15.7177-17.7173 14.0894-16.0033Q12.4609-14.2892 12.4609-11.9622Q12.4609-9.69211 14.0894-7.94953Q15.7177-6.20701 18.0447-6.20701ZM18.0447-29.4562L109.151-29.4562Q111.501-29.4562 113.132-31.1846Q114.763-32.9129 114.763-35.2113Q114.763-37.5956 113.132-39.281Q111.501-40.9665 109.151-40.9665L18.0447-40.9665Q15.7177-40.9665 14.0894-39.2668Q12.4609-37.567 12.4609-35.2113Q12.4609-32.97 14.0894-31.2131Q15.7177-29.4562 18.0447-29.4562ZM18.0447-52.7055L109.151-52.7055Q111.501-52.7055 113.132-54.4195Q114.763-56.1336 114.763-58.432Q114.763-60.8162 113.132-62.5016Q111.501-64.1872 109.151-64.1872L18.0447-64.1872Q15.7177-64.1872 14.0894-62.4874Q12.4609-60.7876 12.4609-58.432Q12.4609-56.1907 14.0894-54.448Q15.7177-52.7055 18.0447-52.7055Z"/>
  </g>
  <g id="Semibold-M" transform="matrix(1 0 0 1 1980.3 1126)">
   <path d="M17.3473-7.65788L108.547-7.65788Q110.597-7.65788 112.034-9.13642Q113.471-10.615 113.471-12.6722Q113.471-14.7284 112.034-16.2074Q110.597-17.6864 108.547-17.6864L17.3473-17.6864Q15.3091-17.6864 13.8851-16.1984Q12.4609-14.7103 12.4609-12.6722Q12.4609-10.6513 13.8851-9.15456Q15.3091-7.65788 17.3473-7.65788ZM17.3473-30.1808L108.547-30.1808Q110.597-30.1808 112.034-31.6779Q113.471-33.1751 113.471-35.195Q113.471-37.2885 112.034-38.7489Q110.597-40.2093 108.547-40.2093L17.3473-40.2093Q15.3091-40.2093 13.8851-38.7398Q12.4609-37.2703 12.4609-35.195Q12.4609-33.2114 13.8851-31.6961Q15.3091-30.1808 17.3473-30.1808ZM17.3473-52.7226L108.547-52.7226Q110.597-52.7226 112.034-54.2012Q113.471-55.6798 113.471-57.6997Q113.471-59.7932 112.034-61.2536Q110.597-62.7141 108.547-62.7141L17.3473-62.7141Q15.3091-62.7141 13.8851-61.2445Q12.4609-59.775 12.4609-57.6997Q12.4609-55.7162 13.8851-54.2193Q15.3091-52.7226 17.3473-52.7226Z"/>
  </g>
  <g id="Medium-M" transform="matrix(1 0 0 1 1684.08 1126)">
   <path d="M16.8186-8.75799L108.09-8.75799Q109.911-8.75799 111.201-10.058Q112.491-11.3581 112.491-13.2105Q112.491-15.0399 111.201-16.3514Q109.911-17.6629 108.09-17.6629L16.8186-17.6629Q14.9993-17.6629 13.7302-16.3463Q12.4609-15.0296 12.4609-13.2105Q12.4609-11.3786 13.7302-10.0683Q14.9993-8.75799 16.8186-8.75799ZM16.8186-30.7302L108.09-30.7302Q109.911-30.7302 111.201-32.052Q112.491-33.3738 112.491-35.1826Q112.491-37.0556 111.201-38.3454Q109.911-39.6352 108.09-39.6352L16.8186-39.6352Q14.9993-39.6352 13.7302-38.3402Q12.4609-37.0453 12.4609-35.1826Q12.4609-33.3944 13.7302-32.0623Q14.9993-30.7302 16.8186-30.7302ZM16.8186-52.7356L108.09-52.7356Q109.911-52.7356 111.201-54.0356Q112.491-55.3358 112.491-57.1445Q112.491-59.0175 111.201-60.3072Q109.911-61.5971 108.09-61.5971L16.8186-61.5971Q14.9993-61.5971 13.7302-60.3021Q12.4609-59.0072 12.4609-57.1445Q12.4609-55.3564 13.7302-54.0459Q14.9993-52.7356 16.8186-52.7356Z"/>
  </g>
  <g id="Regular-M" transform="matrix(1 0 0 1 1388.01 1126)">
   <path d="M16.1289-10.1929L107.494-10.1929Q109.017-10.1929 110.115-11.26Q111.213-12.3273 111.213-13.9127Q111.213-15.4461 110.115-16.5393Q109.017-17.6323 107.494-17.6323L16.1289-17.6323Q14.5953-17.6323 13.5282-16.5393Q12.4609-15.4461 12.4609-13.9127Q12.4609-12.3273 13.5282-11.26Q14.5953-10.1929 16.1289-10.1929ZM16.1289-31.4469L107.494-31.4469Q109.017-31.4469 110.115-32.5399Q111.213-33.6331 111.213-35.1665Q111.213-36.7519 110.115-37.819Q109.017-38.8863 107.494-38.8863L16.1289-38.8863Q14.5953-38.8863 13.5282-37.819Q12.4609-36.7519 12.4609-35.1665Q12.4609-33.6331 13.5282-32.5399Q14.5953-31.4469 16.1289-31.4469ZM16.1289-52.7525L107.494-52.7525Q109.017-52.7525 110.115-53.8197Q111.213-54.887 111.213-56.4203Q111.213-58.0057 110.115-59.0729Q109.017-60.1402 107.494-60.1402L16.1289-60.1402Q14.5953-60.1402 13.5282-59.0729Q12.4609-58.0057 12.4609-56.4203Q12.4609-54.887 13.5282-53.8197Q14.5953-52.7525 16.1289-52.7525Z"/>
  </g>
  <g id="Light-M" transform="matrix(1 0 0 1 1091.85 1126)">
   <path d="M15.3075-10.1587L107.22-10.1587Q108.384-10.1587 109.242-10.9862Q110.101-11.8139 110.101-13.0402Q110.101-14.2312 109.242-15.0763Q108.384-15.9212 107.22-15.9212L15.3075-15.9212Q14.1161-15.9212 13.2885-15.0763Q12.4609-14.2312 12.4609-13.0402Q12.4609-11.8139 13.2885-10.9862Q14.1161-10.1587 15.3075-10.1587ZM15.3075-32.234L107.22-32.234Q108.384-32.234 109.242-33.0789Q110.101-33.924 110.101-35.115Q110.101-36.3414 109.242-37.1689Q108.384-37.9965 107.22-37.9965L15.3075-37.9965Q14.1161-37.9965 13.2885-37.1689Q12.4609-36.3414 12.4609-35.115Q12.4609-33.924 13.2885-33.0789Q14.1161-32.234 15.3075-32.234ZM15.3075-54.3437L107.22-54.3437Q108.384-54.3437 109.242-55.1714Q110.101-55.9993 110.101-57.1902Q110.101-58.4162 109.242-59.244Q108.384-60.0718 107.22-60.0718L15.3075-60.0718Q14.1161-60.0718 13.2885-59.244Q12.4609-58.4162 12.4609-57.1902Q12.4609-55.9993 13.2885-55.1714Q14.1161-54.3437 15.3075-54.3437Z"/>
  </g>
  <g id="Thin-M" transform="matrix(1 0 0 1 795.876 1126)">
   <path d="M14.2213-10.1135L106.858-10.1135Q107.546-10.1135 108.088-10.6241Q108.63-11.1348 108.63-11.8862Q108.63-12.6244 108.088-13.1413Q107.546-13.6581 106.858-13.6581L14.2213-13.6581Q13.4822-13.6581 12.9716-13.1413Q12.4609-12.6244 12.4609-11.8862Q12.4609-11.1348 12.9716-10.6241Q13.4822-10.1135 14.2213-10.1135ZM14.2213-33.275L106.858-33.275Q107.546-33.275 108.088-33.7919Q108.63-34.3088 108.63-35.0469Q108.63-35.7984 108.088-36.3091Q107.546-36.8197 106.858-36.8197L14.2213-36.8197Q13.4822-36.8197 12.9716-36.3091Q12.4609-35.7984 12.4609-35.0469Q12.4609-34.3088 12.9716-33.7919Q13.4822-33.275 14.2213-33.275ZM14.2213-56.4482L106.858-56.4482Q107.546-56.4482 108.088-56.9592Q108.63-57.4704 108.63-58.2085Q108.63-58.9591 108.088-59.4702Q107.546-59.9813 106.858-59.9813L14.2213-59.9813Q13.4822-59.9813 12.9716-59.4702Q12.4609-58.9591 12.4609-58.2085Q12.4609-57.4704 12.9716-56.9592Q13.4822-56.4482 14.2213-56.4482Z"/>
  </g>
  <g id="Ultralight-M" transform="matrix(1 0 0 1 499.542 1126)">
   <path d="M13.6649-10.0903L106.673-10.0903Q107.118-10.0903 107.497-10.4386Q107.877-10.787 107.877-11.2952Q107.877-11.8014 107.497-12.1503Q107.118-12.499 106.673-12.499L13.6649-12.499Q13.1576-12.499 12.8093-12.1503Q12.4609-11.8014 12.4609-11.2952Q12.4609-10.787 12.8093-10.4386Q13.1576-10.0903 13.6649-10.0903ZM13.6649-33.8082L106.673-33.8082Q107.118-33.8082 107.497-34.157Q107.877-34.5059 107.877-35.0121Q107.877-35.5203 107.497-35.8687Q107.118-36.217 106.673-36.217L13.6649-36.217Q13.1576-36.217 12.8093-35.8687Q12.4609-35.5203 12.4609-35.0121Q12.4609-34.5059 12.8093-34.157Q13.1576-33.8082 13.6649-33.8082ZM13.6649-57.5261L106.673-57.5261Q107.118-57.5261 107.497-57.8749Q107.877-58.2239 107.877-58.73Q107.877-59.2372 107.497-59.5861Q107.118-59.935 106.673-59.935L13.6649-59.935Q13.1576-59.935 12.8093-59.5861Q12.4609-59.2372 12.4609-58.73Q12.4609-58.2239 12.8093-57.8749Q13.1576-57.5261 13.6649-57.5261Z"/>
  </g>
  <g id="Black-S" transform="matrix(1 0 0 1 2881.94 696)">
   <path d="M15.8691-8.78906L87.0605-8.78906Q89.6484-8.78906 91.4062-10.7178Q93.1641-12.6465 93.1641-15.1367Q93.1641-17.7246 91.4062-19.6045Q89.6484-21.4844 87.0605-21.4844L15.8691-21.4844Q13.3301-21.4844 11.5479-19.5801Q9.76562-17.6758 9.76562-15.1367Q9.76562-12.7441 11.5479-10.7666Q13.3301-8.78906 15.8691-8.78906ZM15.8691-28.9062L87.0605-28.9062Q89.6484-28.9062 91.4062-30.835Q93.1641-32.7637 93.1641-35.2539Q93.1641-37.8418 91.4062-39.7217Q89.6484-41.6016 87.0605-41.6016L15.8691-41.6016Q13.3301-41.6016 11.5479-39.6973Q9.76562-37.793 9.76562-35.2539Q9.76562-32.8613 11.5479-30.8838Q13.3301-28.9062 15.8691-28.9062ZM15.8691-48.9746L87.0605-48.9746Q89.6484-48.9746 91.4062-50.9033Q93.1641-52.832 93.1641-55.3223Q93.1641-57.9102 91.4062-59.79Q89.6484-61.6699 87.0605-61.6699L15.8691-61.6699Q13.3301-61.6699 11.5479-59.7656Q9.76562-57.8613 9.76562-55.3223Q9.76562-52.9297 11.5479-50.9521Q13.3301-48.9746 15.8691-48.9746Z"/>
  </g>
  <g id="Heavy-S" transform="matrix(1 0 0 1 2585.87 696)">
   <path d="M15.2007-10.4025L86.4267-10.4025Q88.7265-10.4025 90.2999-12.1007Q91.8733-13.7989 91.8733-16.0356Q91.8733-18.3354 90.2999-20.0021Q88.7265-21.6688 86.4267-21.6688L15.2007-21.6688Q12.9383-21.6688 11.352-19.9835Q9.76562-18.2981 9.76562-16.0356Q9.76562-13.8735 11.352-12.138Q12.9383-10.4025 15.2007-10.4025ZM15.2007-29.6092L86.4267-29.6092Q88.7265-29.6092 90.2999-31.3132Q91.8733-33.0172 91.8733-35.2424Q91.8733-37.5537 90.2999-39.2146Q88.7265-40.8756 86.4267-40.8756L15.2007-40.8756Q12.9383-40.8756 11.352-39.196Q9.76562-37.5164 9.76562-35.2424Q9.76562-33.0918 11.352-31.3505Q12.9383-29.6092 15.2007-29.6092ZM15.2007-48.7902L86.4267-48.7902Q88.7265-48.7902 90.2999-50.4884Q91.8733-52.1866 91.8733-54.4118Q91.8733-56.7232 90.2999-58.384Q88.7265-60.045 86.4267-60.045L15.2007-60.045Q12.9383-60.045 11.352-58.3654Q9.76562-56.6858 9.76562-54.4118Q9.76562-52.2613 11.352-50.5257Q12.9383-48.7902 15.2007-48.7902Z"/>
  </g>
  <g id="Bold-S" transform="matrix(1 0 0 1 2289.88 696)">
   <path d="M14.4531-12.207L85.7178-12.207Q87.6953-12.207 89.0625-13.6474Q90.4297-15.0879 90.4297-17.041Q90.4297-19.0186 89.0625-20.4468Q87.6953-21.875 85.7178-21.875L14.4531-21.875Q12.5-21.875 11.1328-20.4346Q9.76562-18.9941 9.76562-17.041Q9.76562-15.1367 11.1328-13.6719Q12.5-12.207 14.4531-12.207ZM14.4531-30.3955L85.7178-30.3955Q87.6953-30.3955 89.0625-31.8482Q90.4297-33.3008 90.4297-35.2295Q90.4297-37.2314 89.0625-38.6475Q87.6953-40.0635 85.7178-40.0635L14.4531-40.0635Q12.5-40.0635 11.1328-38.6353Q9.76562-37.207 9.76562-35.2295Q9.76562-33.3496 11.1328-31.8725Q12.5-30.3955 14.4531-30.3955ZM14.4531-48.584L85.7178-48.584Q87.6953-48.584 89.0625-50.0244Q90.4297-51.4649 90.4297-53.3936Q90.4297-55.3956 89.0625-56.8115Q87.6953-58.2276 85.7178-58.2276L14.4531-58.2276Q12.5-58.2276 11.1328-56.7993Q9.76562-55.3711 9.76562-53.3936Q9.76562-51.5137 11.1328-50.0488Q12.5-48.584 14.4531-48.584Z"/>
  </g>
  <g id="Semibold-S" transform="matrix(1 0 0 1 1993.67 696)">
   <path d="M13.9377-13.4512L85.229-13.4512Q86.9844-13.4512 88.2094-14.7138Q89.4344-15.9766 89.4344-17.7342Q89.4344-19.4895 88.2094-20.7534Q86.9844-22.0172 85.229-22.0172L13.9377-22.0172Q12.1978-22.0172 10.9818-20.7456Q9.76562-19.474 9.76562-17.7342Q9.76562-16.0076 10.9818-14.7294Q12.1978-13.4512 13.9377-13.4512ZM13.9377-30.9376L85.229-30.9376Q86.9844-30.9376 88.2094-32.2169Q89.4344-33.4963 89.4344-35.2206Q89.4344-37.0093 88.2094-38.2564Q86.9844-39.5036 85.229-39.5036L13.9377-39.5036Q12.1978-39.5036 10.9818-38.2487Q9.76562-36.9938 9.76562-35.2206Q9.76562-33.5273 10.9818-32.2325Q12.1978-30.9376 13.9377-30.9376ZM13.9377-48.4418L85.229-48.4418Q86.9844-48.4418 88.2094-49.7045Q89.4344-50.9672 89.4344-52.6915Q89.4344-54.4802 88.2094-55.7273Q86.9844-56.9745 85.229-56.9745L13.9377-56.9745Q12.1978-56.9745 10.9818-55.7196Q9.76562-54.4647 9.76562-52.6915Q9.76562-50.9983 10.9818-49.72Q12.1978-48.4418 13.9377-48.4418Z"/>
  </g>
  <g id="Medium-S" transform="matrix(1 0 0 1 1697.33 696)">
   <path d="M13.5469-14.3945L84.8584-14.3945Q86.4453-14.3945 87.5625-15.5224Q88.6797-16.6504 88.6797-18.2598Q88.6797-19.8467 87.5625-20.9859Q86.4453-22.125 84.8584-22.125L13.5469-22.125Q11.9687-22.125 10.8672-20.9815Q9.76562-19.8379 9.76562-18.2598Q9.76562-16.668 10.8672-15.5312Q11.9687-14.3945 13.5469-14.3945ZM13.5469-31.3487L84.8584-31.3487Q86.4453-31.3487 87.5625-32.4966Q88.6797-33.6445 88.6797-35.2139Q88.6797-36.8408 87.5625-37.9599Q86.4453-39.0791 84.8584-39.0791L13.5469-39.0791Q11.9687-39.0791 10.8672-37.9555Q9.76562-36.832 9.76562-35.2139Q9.76562-33.6621 10.8672-32.5054Q11.9687-31.3487 13.5469-31.3487ZM13.5469-48.334L84.8584-48.334Q86.4453-48.334 87.5625-49.4619Q88.6797-50.5899 88.6797-52.1591Q88.6797-53.7862 87.5625-54.9053Q86.4453-56.0244 84.8584-56.0244L13.5469-56.0244Q11.9687-56.0244 10.8672-54.9009Q9.76562-53.7774 9.76562-52.1591Q9.76562-50.6075 10.8672-49.4707Q11.9687-48.334 13.5469-48.334Z"/>
  </g>
  <g id="Regular-S" transform="matrix(1 0 0 1 1401.11 696)">
   <path d="M13.0371-15.625L84.375-15.625Q85.7422-15.625 86.7188-16.5771Q87.6953-17.5293 87.6953-18.9453Q87.6953-20.3125 86.7188-21.2891Q85.7422-22.2656 84.375-22.2656L13.0371-22.2656Q11.6699-22.2656 10.7178-21.2891Q9.76562-20.3125 9.76562-18.9453Q9.76562-17.5293 10.7178-16.5771Q11.6699-15.625 13.0371-15.625ZM13.0371-31.8848L84.375-31.8848Q85.7422-31.8848 86.7188-32.8613Q87.6953-33.8379 87.6953-35.2051Q87.6953-36.6211 86.7188-37.5732Q85.7422-38.5254 84.375-38.5254L13.0371-38.5254Q11.6699-38.5254 10.7178-37.5732Q9.76562-36.6211 9.76562-35.2051Q9.76562-33.8379 10.7178-32.8613Q11.6699-31.8848 13.0371-31.8848ZM13.0371-48.1934L84.375-48.1934Q85.7422-48.1934 86.7188-49.1455Q87.6953-50.0977 87.6953-51.4648Q87.6953-52.8809 86.7188-53.833Q85.7422-54.7852 84.375-54.7852L13.0371-54.7852Q11.6699-54.7852 10.7178-53.833Q9.76562-52.8809 9.76562-51.4648Q9.76562-50.0977 10.7178-49.1455Q11.6699-48.1934 13.0371-48.1934Z"/>
  </g>
  <g id="Light-S" transform="matrix(1 0 0 1 1104.89 696)">
   <path d="M12.3105-15.5947L84.1329-15.5947Q85.1822-15.5947 85.9468-16.3349Q86.7114-17.0751 86.7114-18.1735Q86.7114-19.2378 85.9468-19.9949Q85.1822-20.7519 84.1329-20.7519L12.3105-20.7519Q11.246-20.7519 10.5058-19.9949Q9.76562-19.2378 9.76562-18.1735Q9.76562-17.0751 10.5058-16.3349Q11.246-15.5947 12.3105-15.5947ZM12.3105-32.5811L84.1329-32.5811Q85.1822-32.5811 85.9468-33.3381Q86.7114-34.0953 86.7114-35.1596Q86.7114-36.2579 85.9468-36.9981Q85.1822-37.7383 84.1329-37.7383L12.3105-37.7383Q11.246-37.7383 10.5058-36.9981Q9.76562-36.2579 9.76562-35.1596Q9.76562-34.0953 10.5058-33.3381Q11.246-32.5811 12.3105-32.5811ZM12.3105-49.601L84.1329-49.601Q85.1822-49.601 85.9468-50.3413Q86.7114-51.0816 86.7114-52.1459Q86.7114-53.244 85.9468-53.9843Q85.1822-54.7247 84.1329-54.7247L12.3105-54.7247Q11.246-54.7247 10.5058-53.9843Q9.76562-53.244 9.76562-52.1459Q9.76562-51.0816 10.5058-50.3413Q11.246-49.601 12.3105-49.601Z"/>
  </g>
  <g id="Thin-S" transform="matrix(1 0 0 1 808.834 696)">
   <path d="M11.3496-15.5547L83.8127-15.5547Q84.4416-15.5547 84.9258-16.0145Q85.41-16.4744 85.41-17.1527Q85.41-17.8163 84.9258-18.2832Q84.4416-18.75 83.8127-18.75L11.3496-18.75Q10.6853-18.75 10.2255-18.2832Q9.76562-17.8163 9.76562-17.1527Q9.76562-16.4744 10.2255-16.0145Q10.6853-15.5547 11.3496-15.5547ZM11.3496-33.502L83.8127-33.502Q84.4416-33.502 84.9258-33.9688Q85.41-34.4357 85.41-35.0993Q85.41-35.7776 84.9258-36.2375Q84.4416-36.6973 83.8127-36.6973L11.3496-36.6973Q10.6853-36.6973 10.2255-36.2375Q9.76562-35.7776 9.76562-35.0993Q9.76562-34.4357 10.2255-33.9688Q10.6853-33.502 11.3496-33.502ZM11.3496-51.4627L83.8127-51.4627Q84.4416-51.4627 84.9258-51.9228Q85.41-52.383 85.41-53.0466Q85.41-53.7243 84.9258-54.1845Q84.4416-54.6446 83.8127-54.6446L11.3496-54.6446Q10.6853-54.6446 10.2255-54.1845Q9.76562-53.7243 9.76562-53.0466Q9.76562-52.383 10.2255-51.9228Q10.6853-51.4627 11.3496-51.4627Z"/>
  </g>
  <g id="Ultralight-S" transform="matrix(1 0 0 1 512.456 696)">
   <path d="M10.8574-15.5342L83.6487-15.5342Q84.0622-15.5342 84.4028-15.8504Q84.7435-16.1667 84.7435-16.6298Q84.7435-17.0883 84.4028-17.4065Q84.0622-17.7246 83.6487-17.7246L10.8574-17.7246Q10.3981-17.7246 10.0819-17.4065Q9.76562-17.0883 9.76562-16.6298Q9.76562-16.1667 10.0819-15.8504Q10.3981-15.5342 10.8574-15.5342ZM10.8574-33.9737L83.6487-33.9737Q84.0622-33.9737 84.4028-34.2918Q84.7435-34.61 84.7435-35.0685Q84.7435-35.5316 84.4028-35.8479Q84.0622-36.1641 83.6487-36.1641L10.8574-36.1641Q10.3981-36.1641 10.0819-35.8479Q9.76562-35.5316 9.76562-35.0685Q9.76562-34.61 10.0819-34.2918Q10.3981-33.9737 10.8574-33.9737ZM10.8574-52.4162L83.6487-52.4162Q84.0622-52.4162 84.4028-52.7328Q84.7435-53.0495 84.7435-53.508Q84.7435-53.9703 84.4028-54.287Q84.0622-54.6036 83.6487-54.6036L10.8574-54.6036Q10.3981-54.6036 10.0819-54.287Q9.76562-53.9703 9.76562-53.508Q9.76562-53.0495 10.0819-52.7328Q10.3981-52.4162 10.8574-52.4162Z"/>
  </g>
 </g>
</svg>
